<svg width="476" height="335" viewBox="0 0 476 335" fill="none" xmlns="http://www.w3.org/2000/svg">
<path d="M230.939 331.202L9.26041 200.379C2.23611 196.423 -3.84028 189.931 3.02604 185.684L225.519 57.5908C228.861 55.528 233.929 54.1689 237.319 56.1468L470.033 191.035C477.094 195.124 478.358 206.555 471.248 210.657L260.203 331.02C255.763 333.591 250.728 334.96 245.595 334.992C240.463 335.024 235.411 333.718 230.939 331.202Z" fill="#00BCB1"/>
<path d="M439.08 183.754L414.021 198.437L365.312 165.395L390.566 152.811" fill="url(#paint0_linear)"/>
<path d="M208.153 130.265C199.816 135.483 188.417 146.986 179.569 151.683L316.993 235.933L350.911 211.045C346.16 208.8 211.92 134.027 208.153 130.265Z" fill="url(#paint1_linear)"/>
<path d="M196.887 235.969C188.55 241.187 149.321 259.219 140.51 263.879L177.163 286.716L215.991 250.009C211.264 247.764 200.667 239.683 196.887 235.969Z" fill="url(#paint2_linear)"/>
<path d="M194.408 122.96C194.408 122.96 231.559 3.25207 231.328 3.25207C231.097 3.25207 232.543 -2.06289 239.118 0.934359L381.694 84.6631C381.694 84.6631 388.597 87.4662 387.248 93.8976C385.899 100.329 350.936 211.045 350.936 211.045C350.2 212.09 349.154 212.876 347.945 213.292C346.736 213.708 345.427 213.733 344.203 213.363C339.865 212.028 197.738 129.634 197.738 129.634C196.437 129.153 195.369 128.195 194.75 126.955C194.132 125.715 194.009 124.287 194.408 122.96Z" fill="#053855"/>
<path d="M233.674 11.9404L379.689 96.9312L349.404 198.437L201.517 115.983L233.674 11.9404Z" fill="#68E1FD"/>
<path d="M60.8976 179.204C52.5486 184.422 30.309 193.765 21.5104 198.486L48.125 213.751L73.4757 188.62C68.7841 186.208 64.5321 183.024 60.8976 179.204Z" fill="url(#paint3_linear)"/>
<path d="M84.2795 151.719C84.2795 151.719 83.1493 191.314 66.2083 192.248C49.2674 193.183 48.1371 151.719 48.1371 151.719" fill="#68E1FD"/>
<path d="M84.2795 151.719C84.2795 151.719 83.1493 191.314 66.2083 192.248C49.2674 193.183 48.1371 151.719 48.1371 151.719" fill="#68E1FD"/>
<path d="M66.2083 159.218C76.1888 159.218 84.2795 155.861 84.2795 151.719C84.2795 147.577 76.1888 144.22 66.2083 144.22C56.2279 144.22 48.1371 147.577 48.1371 151.719C48.1371 155.861 56.2279 159.218 66.2083 159.218Z" fill="#311E69"/>
<path d="M71.1302 156.828C74.4374 140.84 80.1491 125.445 88.0712 111.165C88.7153 109.952 90.8906 111.007 90.2465 112.184C82.4435 126.321 76.8184 141.551 73.5608 157.362C73.3055 158.575 70.875 158.102 71.1302 156.828Z" fill="#311E69"/>
<path d="M60.8004 159.327C62.0399 140.171 64.1869 121.067 67.2413 102.016C67.4601 100.802 69.9757 100.802 69.6719 102.016C66.6175 121.01 64.4745 140.078 63.2431 159.218C62.4896 159.255 61.6024 159.279 60.8004 159.327Z" fill="#311E69"/>
<path d="M93.6736 107.428C96.6389 106.795 99.7215 106.993 102.582 107.998C104.623 108.714 108.828 110.753 108.002 112.925C107.175 115.097 102.083 114.781 100.042 114.296C98.5827 113.954 97.2096 113.317 96.0076 112.424C94.8055 111.53 93.8001 110.4 93.0538 109.102C93.013 109.031 92.9843 108.953 92.9687 108.872C92.8758 108.737 92.8204 108.58 92.8081 108.417C92.7959 108.254 92.8272 108.091 92.8989 107.944C92.9706 107.797 93.0801 107.672 93.2163 107.581C93.3524 107.491 93.5102 107.437 93.6736 107.428Z" fill="#C3EA75"/>
<path d="M89.7361 106.238C89.8185 106.378 89.928 106.499 90.0581 106.596C90.1882 106.692 90.3363 106.762 90.4937 106.8C90.6511 106.838 90.8146 106.845 90.9746 106.819C91.1346 106.794 91.2878 106.737 91.4253 106.651C94.184 105.025 97.5868 104.006 99.592 101.627C100.941 99.9648 101.524 97.2346 99.0451 96.009C97.8576 95.5339 96.5589 95.4071 95.3017 95.6435C94.0445 95.88 92.881 96.4698 91.9479 97.3438C89.6996 99.4188 89.5174 102.465 88.9462 105.061C88.9053 105.321 88.964 105.586 89.1104 105.804C89.2568 106.022 89.4803 106.177 89.7361 106.238ZM94.9618 97.8777V98.1325C94.1533 98.6772 93.4425 99.3541 92.8594 100.135C93.3332 99.2215 94.0421 98.4508 94.9132 97.902L94.9618 97.8777Z" fill="#C3EA75"/>
<path d="M82.3351 100.923C86.4184 99.4552 87.1111 105.049 87.2691 106.991C87.2674 107.221 87.1809 107.442 87.0262 107.612C86.8715 107.782 86.6595 107.889 86.4306 107.913C86.1759 108.097 85.8697 108.195 85.5556 108.195C85.2414 108.195 84.9353 108.097 84.6806 107.913C83.3073 106.918 81.5695 105.984 81.132 104.479C80.7552 103.278 80.7552 101.542 82.3351 100.923Z" fill="#C3EA75"/>
<path d="M66.8889 98.3146C67.086 98.6351 67.398 98.8687 67.7614 98.9679C68.1248 99.0671 68.5124 99.0244 68.8455 98.8485C69.0586 98.8849 69.2764 98.8849 69.4896 98.8485C72.6493 98.4602 74.2413 94.4558 74.8125 92.3686C75.3837 90.2815 76.0278 86.8352 72.8316 85.731C71.5036 85.3078 70.0642 85.4045 68.805 86.0017C67.5458 86.5988 66.561 87.6516 66.0503 88.9467C65.1118 92.0607 65.4122 95.4161 66.8889 98.3146ZM68.5903 95.4751C68.5109 94.94 68.5109 94.3962 68.5903 93.8612C68.5945 94.2307 68.6229 94.5996 68.6753 94.9654C68.6494 95.1396 68.6046 95.3105 68.5417 95.4751H68.5903Z" fill="#C3EA75"/>
<path d="M50.3368 98.8727C50.2274 101.445 53.4358 102.513 56.0851 102.914C57.7378 103.168 63.6319 104.333 63.7292 102.028C63.8901 101.893 63.9997 101.708 64.0395 101.502C64.0794 101.297 64.047 101.084 63.9479 100.899C62.6476 98.4723 59.5364 97.368 56.5469 96.7128C53.9826 96.1667 50.5069 96.0575 50.3368 98.8727ZM52.7674 98.7635C52.8662 98.9091 52.9759 99.047 53.0955 99.1761C52.9981 99.3162 52.9394 99.4794 52.9253 99.6493C52.8557 99.6009 52.7964 99.5391 52.7508 99.4677C52.7052 99.3963 52.6741 99.3166 52.6595 99.2331C52.6448 99.1497 52.6468 99.0642 52.6653 98.9815C52.6838 98.8988 52.7185 98.8206 52.7674 98.7514V98.7635Z" fill="#C3EA75"/>
<path d="M72.9896 100.863C73.1247 101.127 73.3433 101.339 73.6113 101.466C73.8794 101.593 74.182 101.629 74.4722 101.567C76.1823 101.412 77.8274 100.837 79.2604 99.8921C79.7802 99.5622 80.15 99.0423 80.2908 98.4436C80.4316 97.8449 80.3322 97.215 80.0139 96.6885C78.0573 94.3466 73.5851 98.2903 72.4306 99.5644C71.8472 100.074 72.3212 100.705 72.9896 100.863ZM76.5382 98.9577L76.3194 99.0305L77.5347 98.3388C77.2358 98.6127 76.8844 98.8232 76.5017 98.9577H76.5382Z" fill="#C3EA75"/>
<path d="M365.341 110.761C365.672 104.155 361.875 98.5962 356.861 98.3461C351.846 98.0959 347.514 103.249 347.183 109.855C346.853 116.462 350.65 122.02 355.664 122.27C360.678 122.52 365.011 117.367 365.341 110.761Z" fill="white"/>
<path d="M353.95 110.097L357.121 98.5573C355.686 97.9822 354.097 97.909 352.615 98.3497C351.132 98.7903 349.842 99.7188 348.955 100.984L353.95 110.097Z" fill="#FD7382"/>
<path d="M353.95 110.097C353.95 110.097 346.549 115.861 346.366 115.388C345.429 112.979 345.176 110.358 345.635 107.815C346.093 105.271 347.247 102.903 348.967 100.972L353.95 110.097Z" fill="#8787D1"/>
<path d="M354.545 139.154C354.849 132.553 351.035 127.016 346.027 126.786C341.018 126.556 336.712 131.721 336.408 138.322C336.105 144.923 339.919 150.461 344.927 150.69C349.935 150.92 354.242 145.755 354.545 139.154Z" fill="white"/>
<path d="M344.823 138.699L347.995 127.159C346.559 126.583 344.971 126.51 343.488 126.951C342.005 127.392 340.715 128.32 339.828 129.585L344.823 138.699Z" fill="#FD7382"/>
<path d="M344.823 138.699C344.823 138.699 337.422 144.462 337.24 143.989C336.298 141.581 336.043 138.959 336.502 136.415C336.961 133.87 338.116 131.502 339.84 129.573L344.823 138.699Z" fill="#8787D1"/>
<path d="M348.497 168.199C348.827 161.593 345.03 156.034 340.016 155.784C335.002 155.534 330.669 160.687 330.339 167.293C330.008 173.9 333.805 179.458 338.819 179.708C343.833 179.958 348.166 174.806 348.497 168.199Z" fill="white"/>
<path d="M337.154 167.288L340.375 155.76C338.941 155.186 337.355 155.113 335.874 155.554C334.393 155.994 333.106 156.922 332.22 158.187L337.154 167.288Z" fill="#FD7382"/>
<path d="M337.155 167.288C337.155 167.288 329.753 173.052 329.559 172.578C328.623 170.168 328.372 167.547 328.833 165.003C329.294 162.459 330.449 160.092 332.172 158.162L337.155 167.288Z" fill="#8787D1"/>
<path opacity="0.71" d="M241.804 31.6349L287.425 58.1975L277.958 89.9052L231.753 64.1435L241.804 31.6349Z" fill="white"/>
<path opacity="0.71" d="M228.472 68.9366L274.094 95.4872L264.627 127.207L218.422 101.433L228.472 68.9366Z" fill="white"/>
<path d="M193.74 243.311L188.514 241.867L189.328 235.508C189.328 235.508 195.004 236.455 193.74 243.311Z" fill="#42210B"/>
<path d="M186.63 224.818C186.63 224.818 184.783 246.296 185.281 246.551C185.779 246.806 190.799 247.218 190.799 246.854C190.799 246.49 191.09 237.074 191.09 237.074C191.09 237.074 193.521 241.224 193.727 243.299C193.727 243.299 199.731 239.877 200.849 237.134C201.967 234.392 198.285 222.937 196.875 222.354" fill="#FDF2D6"/>
<path d="M206.67 254.56L200.764 248.298L204.616 243.372C204.616 243.372 208.226 251.332 206.67 254.56Z" fill="#42210B"/>
<path d="M197.896 229.72L195.137 255.506C196.85 256.124 198.615 256.587 200.411 256.89C201.529 256.501 202.6 255.992 203.608 255.373L204.592 246.757C204.592 246.757 207.156 249.318 206.694 254.535C206.694 254.183 210.778 252.824 211.3 252.594C212.945 251.876 214.522 251.015 216.016 250.021C217.583 248.953 223.417 244.136 220.281 242.207C217.62 240.581 208.979 241.357 208.979 241.357L208.858 230.715" fill="#FDF2D6"/>
<path d="M187.554 137.376C187.572 137.296 187.574 137.214 187.559 137.133C187.545 137.053 187.515 136.976 187.471 136.907C187.427 136.838 187.37 136.779 187.303 136.732C187.236 136.686 187.16 136.653 187.08 136.636H186.958C187.558 134.358 188.558 132.205 189.911 130.277L214.91 127.316C214.91 127.316 219.929 145.154 221.861 175.855C223.368 199.675 211.653 235.108 211.653 235.108C211.653 235.108 199.5 238.166 193.703 232.196L193.934 227.063C190.918 227.04 187.908 226.793 184.929 226.323C181.854 196.775 184.127 166.814 187.554 137.376Z" fill="#79CC37"/>
<path d="M192.938 230.897L196.061 208.812C197.057 201.774 198.601 194.542 198.625 187.407C198.649 180.272 196.194 173.852 194.979 167.081C193.848 160.499 193.558 153.8 194.116 147.144C194.238 145.591 196.474 145.579 196.34 147.144C195.716 154.589 196.175 162.085 197.701 169.399C199.099 175.94 201.043 182.128 200.764 188.924C200.484 195.719 199.123 202.672 198.163 209.443L195.028 231.528C194.821 233.081 192.719 232.426 192.938 230.897Z" fill="#42210B"/>
<path d="M236.104 98.9456C235.278 100.365 232.519 102.27 231.814 103.799C233.771 105.486 234.245 107.246 236.116 108.957C236.408 108.216 237.623 107.743 238.255 107.355C239.252 106.785 240.029 106.02 240.965 105.438C241.901 104.855 243.25 104.394 244.344 103.848C244.663 103.678 244.961 103.47 245.231 103.229C245.519 103.124 245.799 102.998 246.069 102.853C246.38 102.677 246.608 102.386 246.706 102.043C246.804 101.701 246.763 101.333 246.592 101.021L246.47 100.851C246.752 100.728 246.981 100.509 247.117 100.234C247.253 99.9584 247.286 99.6438 247.212 99.346C247.162 99.1583 247.067 98.9853 246.936 98.8417C246.805 98.6981 246.641 98.5881 246.458 98.5208L246.349 98.3874C246.469 98.3138 246.568 98.2102 246.637 98.0868C246.705 97.9634 246.74 97.8245 246.738 97.6836C246.762 97.5634 246.762 97.4397 246.738 97.3195C246.665 95.8755 245.608 95.6571 244.477 96.1061L244.307 96.191C244.957 95.6616 245.512 95.0255 245.948 94.3101C247.054 93.2302 247.771 92.1259 246.823 91.5313C245.875 90.9367 244.259 92.3807 243.578 92.8783C242.071 94.0068 240.686 95.3052 239.179 96.4094V95.7663C239.179 94.9654 239.057 92.3565 238.219 91.9803C238.019 91.8589 237.779 91.8214 237.551 91.876C237.323 91.9305 237.127 92.0727 237.003 92.2715C236.927 92.3957 236.885 92.5382 236.882 92.6841L236.104 98.9456Z" fill="#FE6162"/>
<path d="M234.439 100.778L222.882 108.69C221.026 104.151 218.648 99.8424 215.797 95.8512C210.936 89.0073 197.774 90.9974 197.774 90.9974C197.774 90.9974 190.009 96.555 187.092 102.683C184.175 108.811 184.358 124.719 186.849 130.022C189.34 135.325 204.896 134.682 213.707 132.558C213.866 132.596 214.03 132.601 214.191 132.573C214.352 132.545 214.506 132.485 214.643 132.397C214.78 132.309 214.898 132.194 214.99 132.059C215.082 131.924 215.145 131.772 215.177 131.612C215.184 131.543 215.184 131.474 215.177 131.406C215.177 126.819 215.177 122.208 215.068 117.609C220.682 124.525 229.651 119.817 235.181 114.478C237.928 112.085 240.409 109.404 242.582 106.481C241.646 103.484 234.439 100.778 234.439 100.778Z" fill="#FAB965"/>
<path d="M210.595 77.6129C210.595 77.6129 211.325 88.1822 208.165 90.6212C205.005 93.0603 199.658 89.0316 199.658 89.0316" fill="#FE6162"/>
<path d="M207.946 72.4193C209.367 73.5227 210.473 74.9787 211.155 76.6422C213.828 83.2919 206.658 91.5435 200.217 92.8176L196.899 91.774C196.899 91.774 192.512 85.3184 192.512 81.7023C192.449 78.2121 193.758 74.8362 196.158 72.298C199.682 69.0459 204.568 69.6769 207.946 72.4193Z" fill="#1A1A1A"/>
<path d="M200.253 92.7205C200.253 92.7205 212.236 127.207 203.219 132.898C194.201 138.589 176.568 133.408 180.007 124.853C183.446 116.298 196.936 91.6769 196.936 91.6769" fill="#1A1A1A"/>
<path opacity="0.71" d="M297.439 63.6581L322.79 78.4138L313.323 110.134L287.425 95.6814L297.439 63.6581Z" fill="white"/>
<path opacity="0.71" d="M307.076 119.975L284.095 107.015C282.613 106.178 281.398 108.496 282.88 109.321L305.849 122.305C306.154 122.428 306.493 122.434 306.802 122.322C307.111 122.209 307.367 121.986 307.52 121.695C307.673 121.404 307.712 121.067 307.63 120.75C307.548 120.432 307.351 120.155 307.076 119.975Z" fill="white"/>
<path opacity="0.71" d="M305.424 125.168L282.406 112.197C280.924 111.359 279.708 113.689 281.191 114.514L304.172 127.486C304.475 127.614 304.816 127.624 305.126 127.515C305.437 127.406 305.696 127.185 305.852 126.895C306.009 126.606 306.051 126.268 305.972 125.949C305.893 125.63 305.697 125.352 305.424 125.168Z" fill="white"/>
<path opacity="0.71" d="M303.953 130.665L280.972 117.706C279.49 116.868 278.274 119.198 279.757 120.023L302.738 132.983C304.208 133.82 305.424 131.491 303.953 130.665Z" fill="white"/>
<path opacity="0.71" d="M302.507 135.641L279.538 122.669C278.056 121.831 276.828 124.161 278.323 124.986L301.28 137.946C302.75 138.771 303.977 136.417 302.507 135.641Z" fill="white"/>
<path opacity="0.71" d="M332.5 91.0823L313.493 152.253C312.071 156.791 319.302 158.405 320.712 153.891L339.719 92.7205C341.116 88.1943 333.898 86.5682 332.5 91.0823Z" fill="white"/>
<path d="M411.128 84.4083L458.257 112.124C459.135 112.64 459.814 113.437 460.185 114.386C460.555 115.334 460.595 116.38 460.299 117.354L440.951 181.267C440.603 182.422 439.809 183.392 438.745 183.963C437.681 184.534 436.433 184.66 435.276 184.312C434.954 184.215 434.644 184.08 434.352 183.912L386.872 157.216C385.968 156.706 385.265 155.905 384.879 154.943C384.492 153.981 384.445 152.917 384.745 151.925L404.493 86.9808C404.844 85.8279 405.639 84.861 406.703 84.2923C407.767 83.7236 409.013 83.5995 410.168 83.9472C410.504 84.0664 410.826 84.221 411.128 84.4083Z" fill="#053855"/>
<path d="M410.253 90.4028L454.477 116.407C454.768 116.58 454.993 116.844 455.116 117.158C455.239 117.473 455.254 117.819 455.158 118.143L437.306 177.068C437.188 177.453 436.922 177.775 436.566 177.964C436.211 178.152 435.795 178.193 435.41 178.075L435.118 177.942L390.59 152.799C390.289 152.633 390.055 152.369 389.927 152.05C389.798 151.732 389.784 151.379 389.885 151.052L408.054 91.2765C408.172 90.892 408.437 90.57 408.793 90.3811C409.148 90.1922 409.564 90.1521 409.95 90.2694L410.253 90.4028Z" fill="#68E1FD"/>
<g opacity="0.71">
<path opacity="0.71" d="M402.184 145.955L428.726 161.791C428.93 161.911 429.09 162.095 429.182 162.313C429.274 162.532 429.293 162.774 429.236 163.004C429.095 163.412 428.826 163.763 428.469 164.006C428.112 164.248 427.687 164.369 427.255 164.351C426.988 164.342 426.728 164.262 426.502 164.121L401.102 148.964L402.184 145.955Z" fill="white"/>
</g>
<path d="M431.898 126.916L438.12 130.69L430.755 159.521L424.606 155.748L431.898 126.916Z" fill="#8787D1"/>
<path d="M422.637 115.801L429.005 119.562L420.474 153.478L414.021 149.535L422.637 115.801Z" fill="#F8997C"/>
<path d="M413.802 106.336L419.417 109.939L409.974 147.326L404.226 143.831L413.802 106.336Z" fill="white"/>
<defs>
<linearGradient id="paint0_linear" x1="410.393" y1="160.297" x2="399.099" y2="177.164" gradientUnits="userSpaceOnUse">
<stop stop-color="#1B1464"/>
<stop offset="1" stop-color="white"/>
</linearGradient>
<linearGradient id="paint1_linear" x1="39744.6" y1="-17766.1" x2="38763.3" y2="-14415" gradientUnits="userSpaceOnUse">
<stop stop-color="#1B1464"/>
<stop offset="1" stop-color="white"/>
</linearGradient>
<linearGradient id="paint2_linear" x1="13158.5" y1="-5650.46" x2="11760.8" y2="-3125.8" gradientUnits="userSpaceOnUse">
<stop stop-color="#1B1464"/>
<stop offset="1" stop-color="white"/>
</linearGradient>
<linearGradient id="paint3_linear" x1="3033.22" y1="-5245" x2="2378.22" y2="-4048.46" gradientUnits="userSpaceOnUse">
<stop stop-color="#1B1464"/>
<stop offset="1" stop-color="white"/>
</linearGradient>
</defs>
</svg>
